<?xml version="1.0" standalone="no"?>
<!DOCTYPE svg PUBLIC "-//W3C//DTD SVG 20010904//EN"
 "http://www.w3.org/TR/2001/REC-SVG-20010904/DTD/svg10.dtd">
<svg version="1.0" xmlns="http://www.w3.org/2000/svg"
 width="1000.000000pt" height="1000.000000pt" viewBox="0 0 1000.000000 1000.000000"
 preserveAspectRatio="xMidYMid meet">

<g transform="translate(0.000000,1000.000000) scale(0.100000,-0.100000)"
fill="rebeccapurple" stroke="none">
<path d="M6445 9168 l-26 -20 1 -580 2 -581 -24 -22 c-12 -12 -203 -151 -423
-307 -504 -360 -505 -360 -505 -398 0 -17 9 -39 19 -49 11 -11 84 -40 163 -65
79 -25 321 -102 537 -170 291 -92 399 -130 410 -145 9 -12 31 -69 49 -128 120
-389 266 -848 288 -906 29 -77 52 -94 103 -76 31 11 23 1 509 686 95 133 181
247 192 253 15 8 194 10 594 8 553 -3 575 -2 595 16 12 11 21 29 21 40 0 12
-148 221 -340 481 -268 362 -340 466 -340 489 0 17 70 233 155 481 231 675
225 649 166 680 -31 15 -27 17 -1020 -322 -85 -29 -110 -34 -132 -26 -14 6
-199 138 -410 295 -549 407 -540 401 -584 366z"/>
<path d="M3867 7183 c-4 -3 -7 -95 -7 -204 l0 -197 -147 -106 c-203 -144 -192
-135 -171 -150 9 -6 96 -36 193 -66 l176 -54 45 -146 c59 -191 76 -234 96
-238 11 -2 51 46 130 157 l113 160 203 1 c165 0 204 3 208 14 3 8 -43 79 -110
169 -64 84 -116 158 -116 164 0 5 24 86 54 179 68 215 68 214 48 214 -10 0
-99 -27 -200 -61 l-183 -61 -153 116 c-148 113 -165 123 -179 109z"/>
<path d="M5903 6543 c-68 -37 -34 -1 -2747 -2908 -1260 -1349 -2279 -2450
-2283 -2464 -7 -26 4 -49 30 -65 13 -8 26 -6 52 9 19 11 362 326 762 701 400
374 1554 1451 2563 2394 1009 942 1874 1753 1922 1802 101 102 129 149 135
233 9 113 -39 209 -141 280 -54 37 -60 39 -149 43 -86 4 -95 2 -144 -25z"/>
<path d="M3353 5972 c-644 -683 -1332 -1418 -1367 -1460 -40 -49 -39 -70 2
-48 26 14 1527 1409 1715 1594 129 127 141 160 83 218 -27 27 -42 34 -75 34
-40 0 -42 -2 -358 -338z"/>
<path d="M5437 4273 c-4 -3 -7 -97 -7 -208 l0 -201 -143 -97 c-161 -109 -195
-138 -175 -154 7 -6 92 -34 188 -63 96 -29 180 -58 187 -64 7 -6 35 -84 62
-173 28 -90 55 -172 61 -183 24 -45 46 -23 184 173 l89 127 204 0 c167 0 203
2 203 14 0 15 -49 83 -163 230 l-70 89 56 176 c76 241 72 221 48 221 -11 0
-98 -25 -194 -55 -96 -30 -181 -55 -190 -55 -9 0 -85 52 -168 115 -83 63 -154
115 -158 115 -4 0 -11 -3 -14 -7z"/>
<path d="M5253 3384 c-20 -9 -1489 -1579 -1676 -1792 -35 -40 -48 -67 -27 -60
19 7 1554 1433 1758 1634 83 82 92 94 92 128 0 53 -44 96 -97 95 -21 0 -43 -3
-50 -5z"/>
</g>
</svg>
